:version 1.10
:name ASF
:units
  mass 1
  length 1
  angle deg
:documentation
  ASF file generated by Kaydara
:root
  axis xyz
  order  tx ty tz rx ry rz
  position 0 0 0
  orientation 0 0 0
:bonedata
  begin
    id 1
    name RightUpLegDummy
    direction -1 2.30186e-007 8.31532e-007
    length 4.46685
    axis 0 0 0 xyz
  end
  begin
    id 2
    name RightUpLeg
    direction -2.30187e-007 -1 1.24343e-010
    length 16.4045
    axis -3.49089 -0.000906625 0.000286804 xyz
    dof rx ry rz
  end
  begin
    id 3
    name RightLeg
    direction -2.30181e-007 -1 -4.17157e-009
    length 17.5097
    axis 3.68512 0.0193738 -0.131023 xyz
    dof rx ry rz
  end
  begin
    id 4
    name RightFoot
    direction 8.31421e-007 -4.51202e-011 1
    length 6.49508
    axis 4.81691e-005 -0.120479 -0.188788 xyz
    dof rx ry rz
  end
  begin
    id 5
    name RightToes
    direction 0.00124746 -0.014064 0.9999
    length 3.85082
    axis 0.000481921 0.542163 -0.142578 xyz
    dof rx ry rz
  end
  begin
    id 6
    name SpineDummy
    direction 0.0717043 0.9409 -0.331007
    length 10.0032
    axis 0 0 0 xyz
  end
  begin
    id 7
    name Spine
    direction 2.30186e-007 1 4.58806e-011
    length 9.84055
    axis -0.001389 0.000121418 2.40972e-006 xyz
    dof rx ry rz
  end
  begin
    id 8
    name Spine1
    direction 0 0 0
    length 0
    axis -0.001389 0.000121451 1.30017e-006 xyz
    dof rx ry rz
  end
  begin
    id 9
    name HEadDummy
    direction -0.00347485 0.950688 -0.310128
    length 8.00997
    axis -0.001389 0.000121451 1.30017e-006 xyz
  end
  begin
    id 10
    name HEad
    direction -0.0222688 0.980941 0.193023
    length 5.12695
    axis -0.001389 0.000121451 1.30017e-006 xyz
    dof rx ry rz
  end
  begin
    id 11
    name LeftShoulder1Dummy
    direction 0.988871 0.146793 -0.0242004
    length 3.5792
    axis -0.001389 0.000121451 1.30017e-006 xyz
  end
  begin
    id 12
    name LeftShoulder1
    direction 0.993832 0.108932 0.020779
    length 4.16823
    axis -0.001389 0.000121451 1.30017e-006 xyz
    dof rx ry rz
  end
  begin
    id 13
    name LeftArm
    direction 1 3.44807e-006 -8.31404e-007
    length 9.91437
    axis -23.1894 0.134784 0.967509 xyz
    dof rx ry rz
  end
  begin
    id 14
    name LeftForeArm
    direction 1 3.44842e-006 -8.31581e-007
    length 9.08575
    axis -9.91835 -0.06569 -0.177793 xyz
    dof rx ry rz
  end
  begin
    id 15
    name LeftHand
    direction 0.992938 -0.0411636 0.11126
    length 5.32135
    axis -0.00960232 -0.00340091 0.185173 xyz
    dof rx ry rz
  end
  begin
    id 16
    name RightShoulderDummy
    direction -0.988871 0.146793 -0.0241962
    length 3.5792
    axis -0.001389 0.000121451 1.30017e-006 xyz
  end
  begin
    id 17
    name RightShoulder
    direction -0.993832 0.108933 0.0207785
    length 4.16823
    axis 0.215806 0.000203643 -0.0068026 xyz
    dof rx ry rz
  end
  begin
    id 18
    name RightArm
    direction -1 3.90912e-006 8.31284e-007
    length 9.91437
    axis -23.2009 -0.134239 -0.964101 xyz
    dof rx ry rz
  end
  begin
    id 19
    name RightForeArm
    direction -1 3.90882e-006 8.31502e-007
    length 9.08575
    axis -9.92322 0.0658061 0.178867 xyz
    dof rx ry rz
  end
  begin
    id 20
    name RightHand
    direction -0.992843 -0.0414603 0.112003
    length 5.28593
    axis -0.00960638 0.00330671 -0.185228 xyz
    dof rx ry rz
  end
  begin
    id 21
    name LeftUpLegDummy
    direction 1 -2.30186e-007 -8.31532e-007
    length 4.46685
    axis 0 0 0 xyz
  end
  begin
    id 22
    name LeftUpLeg
    direction -2.30187e-007 -1 6.00931e-010
    length 16.4045
    axis -3.48766 0.00143442 -0.000524262 xyz
    dof rx ry rz
  end
  begin
    id 23
    name LeftLeg
    direction -2.30187e-007 -1 1.6669e-009
    length 17.5097
    axis 3.68178 -0.00654042 -0.000285133 xyz
    dof rx ry rz
  end
  begin
    id 24
    name LeftFoot
    direction 8.31532e-007 -4.54478e-011 1
    length 6.49508
    axis 1.87233e-006 4.66016e-005 -8.6538e-006 xyz
    dof rx ry rz
  end
  begin
    id 25
    name LeftToes
    direction 0.00818058 -0.00485161 0.999955
    length 3.85048
    axis 1.06247e-005 4.65869e-005 -8.65513e-006 xyz
    dof rx ry rz
  end
:hierarchy
  begin
    root RightUpLegDummy SpineDummy LeftUpLegDummy
    RightUpLegDummy RightUpLeg
    RightUpLeg RightLeg
    RightLeg RightFoot
    RightFoot RightToes
    SpineDummy Spine
    Spine Spine1
    Spine1 HEadDummy LeftShoulder1Dummy RightShoulderDummy
    HEadDummy HEad
    LeftShoulder1Dummy LeftShoulder1
    LeftShoulder1 LeftArm
    LeftArm LeftForeArm
    LeftForeArm LeftHand
    RightShoulderDummy RightShoulder
    RightShoulder RightArm
    RightArm RightForeArm
    RightForeArm RightHand
    LeftUpLegDummy LeftUpLeg
    LeftUpLeg LeftLeg
    LeftLeg LeftFoot
    LeftFoot LeftToes
  end

:SAMPLES-PER-SECOND 30
:FULLY-SPECIFIED
:DEGREES
207
root  31.6924 32.3856 7.17533 65.7634 84.5369 65.1911
RightUpLeg  -20.3125 -16.0108 -0.435078
RightLeg  64.2271 -6.53871 -11.5024
RightFoot  -7.59825 0.0843285 1.64757
RightToes  -18.4433 -0.072952 -0.16419
Spine  6.22604 -1.53277 -4.18386
Spine1  12.1615 -3.40184 -6.64406
HEad  37.8611 -35.4854 22.4916
LeftShoulder1  0 -2.42657e-020 -4.95415e-022
LeftArm  -22.6976 -2.30091 -71.8124
LeftForeArm  132.401 -75.7472 -135.255
LeftHand  0.596545 -3.26288 -21.1303
RightShoulder  0 2.42657e-020 1.07489e-018
RightArm  -44.2218 -20.3551 88.5902
RightForeArm  38.1535 33.2977 6.64099
RightHand  -0.898931 20.9889 -4.48136
LeftUpLeg  -15.0131 -1.46325 -2.45737
LeftLeg  34.677 -3.68376 -2.21481
LeftFoot  -6.12237 0.0207616 0.388212
LeftToes  -27.0462 1.18758e-006 1.19596e-007
208
root  32.69 32.8952 7.4987 34.5182 82.2701 33.9032
RightUpLeg  -23.1528 -18.1268 1.25724
RightLeg  56.9069 -8.29339 -10.9843
RightFoot  -8.62188 0.121049 1.98341
RightToes  -20.5462 -0.0845242 -0.181199
Spine  6.04832 -2.46226 -3.49379
Spine1  11.7423 -5.38905 -5.44585
HEad  38.6562 -33.9305 21.5072
LeftShoulder1  0 -2.42657e-020 -4.95415e-022
LeftArm  -21.2226 -4.28227 -73.0339
LeftForeArm  133.971 -76.5383 -131.676
LeftHand  0.768958 -4.37127 -20.3463
RightShoulder  0 2.42657e-020 1.07489e-018
RightArm  -42.8291 -18.9035 89.6406
RightForeArm  38.0162 32.7096 6.49225
RightHand  -0.970303 21.548 -4.7272
LeftUpLeg  -10.5198 1.27986 -1.53428
LeftLeg  30.2492 -2.40888 -1.20778
LeftFoot  -4.53539 0.0047958 0.121098
LeftToes  -27.1272 1.18758e-006 1.19596e-007
209
root  33.6572 33.2905 7.85526 21.0645 78.4843 20.1048
RightUpLeg  -25.3541 -19.814 3.46862
RightLeg  47.3481 -8.94235 -8.47113
RightFoot  -9.10918 0.119461 1.87723
RightToes  -20.2235 -0.0827079 -0.178616
Spine  5.78355 -3.28681 -2.92612
Spine1  11.1483 -7.13282 -4.53649
HEad  39.3742 -31.9208 20.8901
LeftShoulder1  0 -2.42657e-020 -4.95415e-022
LeftArm  -18.8179 -5.91757 -74.204
LeftForeArm  132.428 -77.8181 -124.137
LeftHand  0.894364 -5.28927 -19.5769
RightShoulder  0 2.42657e-020 1.07489e-018
RightArm  -40.4583 -17.5421 90.7062
RightForeArm  37.6066 31.5964 6.21632
RightHand  -1.14112 21.4504 -5.65095
LeftUpLeg  -6.9561 4.00198 -0.915662
LeftLeg  26.984 -0.912989 -0.3965
LeftFoot  -2.56743 -0.00169385 -0.0755978
LeftToes  -27.5675 1.18758e-006 1.19596e-007
210
root  34.6372 33.51 8.22834 16.0411 73.6539 14.5467
RightUpLeg  -26.8723 -19.6473 5.64618
RightLeg  36.3265 -8.98864 -5.7283
RightFoot  -9.69702 0.115551 1.73984
RightToes  -20.8299 -0.0861335 -0.183462
Spine  5.44252 -3.78198 -2.466
Spine1  10.4162 -8.16587 -3.89155
HEad  39.5316 -29.912 20.2752
LeftShoulder1  0 -2.42657e-020 -4.95415e-022
LeftArm  -15.4299 -6.99959 -75.9071
LeftForeArm  117.036 -79.5934 -103.72
LeftHand  1.00475 -6.85285 -17.05
RightShoulder  0 2.42657e-020 1.07489e-018
RightArm  -38.3171 -16.3479 91.6011
RightForeArm  38.2665 30.5295 5.95708
RightHand  -1.24654 21.6411 -6.14684
LeftUpLeg  -4.02447 6.59893 -0.884215
LeftLeg  24.778 0.980879 0.375406
LeftFoot  -0.822896 -0.00112786 -0.157064
LeftToes  -30.1811 1.18758e-006 1.19596e-007
211
root  35.6888 33.5217 8.6308 13.7448 68.3178 12.0319
RightUpLeg  -27.3717 -17.5501 7.21539
RightLeg  26.7122 -11.0287 -4.65071
RightFoot  -9.31192 0.123378 1.89254
RightToes  -19.1122 -0.0765648 -0.169646
Spine  5.22116 -4.17293 -2.06484
Spine1  9.91181 -8.96085 -3.38448
HEad  39.9412 -26.9197 18.8886
LeftShoulder1  0 -2.42657e-020 -4.95415e-022
LeftArm  -12.0001 -7.15804 -77.8924
LeftForeArm  87.51 -79.0758 -67.2598
LeftHand  0.93038 -9.22813 -11.8685
RightShoulder  0 2.42657e-020 1.07489e-018
RightArm  -36.5298 -14.6229 92.3254
RightForeArm  39.0754 28.9357 5.58068
RightHand  -1.27602 22.0741 -6.1669
LeftUpLeg  -1.37185 8.81795 -1.35094
LeftLeg  24.0372 3.35182 1.23978
LeftFoot  0.194788 -0.00311443 -0.144583
LeftToes  -33.398 1.18758e-006 1.19596e-007
212
root  36.9081 33.3405 9.0685 12.4719 63.0809 11.3187
RightUpLeg  -27.5445 -17.2366 8.53121
RightLeg  21.6219 -12.9631 -4.1512
RightFoot  -9.13305 0.138652 2.11355
RightToes  -15.3528 -0.0570956 -0.138448
Spine  5.17377 -4.53733 -1.73231
Spine1  9.76614 -9.6593 -3.06128
HEad  40.6474 -23.2093 16.8402
LeftShoulder1  0 -2.42657e-020 -4.95415e-022
LeftArm  -8.63923 -7.48246 -80.5583
LeftForeArm  60.1047 -71.5338 -32.0836
LeftHand  0.335073 -11.8726 -3.59364
RightShoulder  0 2.42657e-020 1.07489e-018
RightArm  -34.2889 -13.097 92.6267
RightForeArm  39.1733 27.8874 5.34013
RightHand  -1.37732 22.034 -6.69778
LeftUpLeg  1.58274 11.4163 -2.21354
LeftLeg  24.4743 5.63771 2.13334
LeftFoot  0.484175 -0.00494088 -0.111048
LeftToes  -36.3 1.18758e-006 1.19596e-007
213
root  38.2136 33.0178 9.60021 10.6357 58.2509 10.55
RightUpLeg  -26.8041 -16.4567 9.47584
RightLeg  20.8536 -14.9291 -4.54712
RightFoot  -8.39249 0.133924 2.20292
RightToes  -11.1572 -0.0378348 -0.102208
Spine  5.2703 -4.82714 -1.16889
Spine1  9.84702 -10.2207 -2.28051
HEad  42.0303 -19.4783 13.8626
LeftShoulder1  0 -2.42657e-020 -4.95415e-022
LeftArm  -5.7026 -9.69662 -84.7824
LeftForeArm  54.1567 -54.3114 -14.2145
LeftHand  -0.590603 -14.6013 4.23955
RightShoulder  0 2.42657e-020 1.07489e-018
RightArm  -32.7875 -11.5019 92.2316
RightForeArm  38.5825 26.6287 5.05835
RightHand  -1.37665 21.6252 -6.83087
LeftUpLeg  4.50169 14.1243 -2.54409
LeftLeg  26.3356 7.1505 2.97077
LeftFoot  0.571831 -0.00538706 -0.0891455
LeftToes  -40.8212 1.18758e-006 1.19596e-007
214
root  39.5045 32.5328 10.278 8.38187 53.5926 8.83595
RightUpLeg  -25.659 -10.8038 9.45499
RightLeg  24.1296 -17.759 -6.48246
RightFoot  -7.91537 0.143115 2.44613
RightToes  2.31558 0.00531788 0.0220204
Spine  5.53217 -5.5497 -0.164157
Spine1  9.92717 -12.4261 0.189938
HEad  43.5906 -16.5194 11.1788
LeftShoulder1  0 -2.42657e-020 -4.95415e-022
LeftArm  -3.56204 -14.4986 -89.6979
LeftForeArm  58.4327 -31.0659 -6.0482
LeftHand  -0.518205 -14.7915 3.6224
RightShoulder  0 2.42657e-020 1.07489e-018
RightArm  -33.0258 -9.42014 91.3102
RightForeArm  37.8148 25.2825 4.7642
RightHand  -1.17965 21.4815 -5.84472
LeftUpLeg  5.06652 16.0964 -2.06953
LeftLeg  32.3062 7.70722 4.18223
LeftFoot  0.886059 0.00142193 -0.1839
LeftToes  -48.1724 1.18758e-006 1.19596e-007
215
root  40.6856 31.9225 11.0335 6.38689 49.0546 7.25345
RightUpLeg  -27.7715 -6.68835 9.64388
RightLeg  33.7241 -15.9051 -9.00863
RightFoot  -8.58222 0.143639 2.29187
RightToes  6.44721 0.0125809 0.0617762
Spine  6.33044 -6.66512 1.04853
Spine1  10.2799 -15.8182 3.7301
HEad  45.134 -14.7091 9.25956
LeftShoulder1  0 -2.42657e-020 -4.95415e-022
LeftArm  -4.75115 -18.2191 -93.873
LeftForeArm  64.7998 -18.9416 -3.40669
LeftHand  0.129487 -14.9758 -1.35571
RightShoulder  0 2.42657e-020 1.07489e-018
RightArm  -35.3749 -6.07057 90.2192
RightForeArm  36.9442 23.1492 4.31114
RightHand  -0.773242 22.0195 -3.60386
LeftUpLeg  2.89329 17.7814 -1.23326
LeftLeg  42.9711 6.63976 5.39844
LeftFoot  2.69104 0.00576776 -0.24557
LeftToes  -52.4001 1.18758e-006 1.19596e-007
216
root  41.7443 31.4939 11.8322 4.81271 44.548 6.31511
RightUpLeg  -28.3435 -6.82501 10.2252
RightLeg  40.1047 -11.6487 -8.48908
RightFoot  -12.2348 0.226731 2.49296
RightToes  9.15168 0.0149714 0.0880399
Spine  7.07644 -7.108 1.99509
Spine1  10.9597 -17.0634 5.63078
HEad  45.3724 -12.6267 7.51324
LeftShoulder1  0 -2.42657e-020 -4.95415e-022
LeftArm  -4.3218 -21.9763 -97.1716
LeftForeArm  78.0566 -9.56616 -1.61266
LeftHand  1.63822 -16.8851 -11.3785
RightShoulder  0 2.42657e-020 1.07489e-018
RightArm  -39.5287 -1.81509 89.0603
RightForeArm  38.952 18.8156 3.43043
RightHand  -0.671682 22.0735 -3.07356
LeftUpLeg  -0.237643 19.3208 -0.339571
LeftLeg  54.1593 4.38794 5.28989
LeftFoot  7.43037 -0.00224178 0.0345153
LeftToes  -45.9692 1.18758e-006 1.19596e-007
217
root  42.6165 31.2674 12.6665 4.01482 39.6019 5.78284
RightUpLeg  -27.0061 -7.44691 10.5271
RightLeg  42.0712 -7.38826 -5.84018
RightFoot  -15.252 0.208876 1.9376
RightToes  8.84946 0.0154023 0.0850979
Spine  7.20768 -6.66343 2.63565
Spine1  11.1542 -15.7742 5.92266
HEad  46.7374 -10.755 5.53619
LeftShoulder1  0 -2.42657e-020 -4.95415e-022
LeftArm  0.258888 -22.169 -98.5384
LeftForeArm  80.4651 -3.27925 -0.489329
LeftHand  1.31225 -12.9965 -11.8587
RightShoulder  0 2.42657e-020 1.07489e-018
RightArm  -46.8728 1.83405 87.6517
RightForeArm  45.3082 13.9398 2.48833
RightHand  -0.577672 21.5211 -2.66971
LeftUpLeg  -4.41992 20.7369 0.274678
LeftLeg  63.8502 2.14649 3.72487
LeftFoot  16.2344 -0.0572107 0.401109
LeftToes  -35.146 1.18758e-006 1.19596e-007
218
root  43.3837 31.3517 13.5182 3.86639 33.7256 5.52711
RightUpLeg  -24.8477 -3.33244 10.2715
RightLeg  42.1021 -6.17007 -4.89657
RightFoot  -16.0552 0.187983 1.71047
RightToes  7.89272 0.0146275 0.0757952
Spine  6.85642 -5.74267 3.01916
Spine1  10.7386 -13.311 5.68593
HEad  49.0036 -8.77019 3.0175
LeftShoulder1  0 -2.42657e-020 -4.95415e-022
LeftArm  -6.25962 -18.035 -97.7842
LeftForeArm  75.8582 -3.82935 -0.599121
LeftHand  0.624891 -10.1636 -7.39323
RightShoulder  0 2.42657e-020 1.07489e-018
RightArm  -54.4304 3.51154 86.1121
RightForeArm  51.0698 11.3107 1.99349
RightHand  -0.704209 20.4976 -3.52441
LeftUpLeg  -9.08075 21.3324 0.189339
LeftLeg  69.6688 -0.024804 -0.0712933
LeftFoot  28.9559 0.154516 -0.598424
LeftToes  -35.6116 1.18758e-006 1.19596e-007
219
root  44.1022 31.6872 14.395 3.61298 28.9021 5.56514
RightUpLeg  -21.3411 1.136 9.75086
RightLeg  40.0675 -6.1688 -4.54772
RightFoot  -15.9055 0.188413 1.72626
RightToes  7.21489 0.0134002 0.0692156
Spine  6.40688 -5.12284 3.00916
Spine1  10.2827 -11.5201 5.12898
HEad  51.0923 -7.76276 2.43781
LeftShoulder1  0 -2.42657e-020 -4.95415e-022
LeftArm  -17.8078 -12.2222 -96.414
LeftForeArm  75.4804 -7.34955 -1.22278
LeftHand  0.487082 -11.725 -5.11403
RightShoulder  0 2.42657e-020 1.07489e-018
RightArm  -54.3889 2.14306 85.6247
RightForeArm  48.2961 13.434 2.38947
RightHand  -0.88143 20.5717 -4.48556
LeftUpLeg  -12.6616 18.5493 -0.488896
LeftLeg  71.8635 -1.06819 -2.68344
LeftFoot  21.5461 0.269289 -1.41522
LeftToes  -28.5709 1.18758e-006 1.19596e-007
220
root  44.7687 32.2045 15.2691 3.50693 25.4974 6.08211
RightUpLeg  -16.8339 5.59221 8.95837
RightLeg  35.9794 -7.38798 -4.66019
RightFoot  -14.8711 0.208863 1.97793
RightToes  6.37141 0.0124735 0.0610424
Spine  6.00483 -4.77601 2.64684
Spine1  10.0455 -10.3321 4.25739
HEad  51.2928 -8.33428 2.97362
LeftShoulder1  0 -2.42657e-020 -4.95415e-022
LeftArm  -19.2327 -6.19322 -94.3234
LeftForeArm  64.7677 -12.8526 -2.24755
LeftHand  0.656339 -13.6174 -5.86588
RightShoulder  0 2.42657e-020 1.07489e-018
RightArm  -47.1276 -1.20912 85.227
RightForeArm  39.0385 19.3463 3.53517
RightHand  -0.849045 20.6494 -4.28939
LeftUpLeg  -16.0459 14.3712 -1.1728
LeftLeg  71.233 0.624976 1.49546
LeftFoot  14.2309 -0.025384 0.203338
LeftToes  -22.0436 1.18758e-006 1.19596e-007
